<?xml version="1.0" encoding="utf-8"?>
<!-- Generator: Adobe Illustrator 22.1.0, SVG Export Plug-In . SVG Version: 6.00 Build 0)  -->
<svg version="1.1" id="Layer_1" xmlns="http://www.w3.org/2000/svg" xmlns:xlink="http://www.w3.org/1999/xlink" x="0px" y="0px"
	 viewBox="0 0 20 20" style="enable-background:new 0 0 20 20;" xml:space="preserve">
<g>
	<path d="M1.8,3.6L1.8,3.6c0-0.3,0.2-0.5,0.5-0.5h2c0.2,0,0.3,0.1,0.4,0.3l0.8,1.5C5.6,5,5.8,5,5.9,5h11.2c0.3,0,0.6,0.3,0.5,0.7
		L16.1,10c-0.1,0.2-0.3,0.3-0.5,0.3H7.4c-0.1,0-0.3,0.1-0.4,0.2l-0.3,0.4c-0.3,0.3,0,0.8,0.4,0.8h7c0.3,0,0.5,0.2,0.5,0.5v0.2
		c0,0.3-0.2,0.5-0.5,0.5H4.7c-0.4,0-0.6-0.4-0.4-0.8l1.2-1.8c0.2-0.2,0.1-0.5-0.1-0.7L5,9.4c-0.1,0-0.2-0.1-0.2-0.3L3.7,4.5
		C3.6,4.3,3.4,4.1,3.2,4.1H2.3C2,4.1,1.8,3.9,1.8,3.6z"/>
	<circle cx="4.8" cy="15.6" r="1.4"/>
	<circle cx="13.8" cy="15.6" r="1.4"/>
</g>
</svg>
